<?xml version="1.0" encoding="UTF-8" standalone="no"?>
<!-- Created with Inkscape (http://www.inkscape.org/) -->

<svg
   xmlns:dc="http://purl.org/dc/elements/1.1/"
   xmlns:cc="http://creativecommons.org/ns#"
   xmlns:rdf="http://www.w3.org/1999/02/22-rdf-syntax-ns#"
   xmlns:svg="http://www.w3.org/2000/svg"
   xmlns="http://www.w3.org/2000/svg"
   xmlns:sodipodi="http://sodipodi.sourceforge.net/DTD/sodipodi-0.dtd"
   xmlns:inkscape="http://www.inkscape.org/namespaces/inkscape"
   width="64"
   height="64"
   viewBox="0 0 16.933333 16.933333"
   version="1.1"
   id="svg3719"
   inkscape:version="0.92.5 (2060ec1f9f, 2020-04-08)"
   sodipodi:docname="dirt.svg">
  <defs
     id="defs3713" />
  <sodipodi:namedview
     id="base"
     pagecolor="#ffffff"
     bordercolor="#666666"
     borderopacity="1.0"
     inkscape:pageopacity="0.0"
     inkscape:pageshadow="2"
     inkscape:zoom="5.6568542"
     inkscape:cx="21.835176"
     inkscape:cy="24.911237"
     inkscape:document-units="mm"
     inkscape:current-layer="layer1"
     showgrid="false"
     units="px"
     inkscape:window-width="1061"
     inkscape:window-height="812"
     inkscape:window-x="172"
     inkscape:window-y="397"
     inkscape:window-maximized="0" />
  <metadata
     id="metadata3716">
    <rdf:RDF>
      <cc:Work
         rdf:about="">
        <dc:format>image/svg+xml</dc:format>
        <dc:type
           rdf:resource="http://purl.org/dc/dcmitype/StillImage" />
        <dc:title></dc:title>
      </cc:Work>
    </rdf:RDF>
  </metadata>
  <g
     inkscape:label="Layer 1"
     inkscape:groupmode="layer"
     id="layer1"
     transform="translate(0,-280.06667)">
    <path
       style="fill:#bc5a18;stroke:#f4d7d7;stroke-width:0.31084919px;stroke-linecap:butt;stroke-linejoin:miter;stroke-opacity:1;fill-opacity:1"
       d="m 4.4066441,293.78935 c 0.018194,0.0738 0.036392,0.14751 0.054589,0.22127 0.018198,0 0.041722,-0.013 0.054589,0 0.012868,0.013 -0.012867,0.0422 0,0.0553 0.012868,0.013 0.041722,-0.013 0.054589,0 0.012868,0.013 -0.00575,0.0378 0,0.0553 0.012868,0.0392 0.041722,0.0716 0.054589,0.11058 0.00575,0.0175 -0.012868,0.0422 0,0.0553 0.028771,0.0292 0.080407,0.0261 0.1091787,0.0554 0.012868,0.013 -0.00813,0.0388 0,0.0553 0.1810488,0.18346 -0.025733,-0.0522 0.054589,0.11057 0.029065,0.0589 0.080114,0.0517 0.1091788,0.11058 0.00813,0.0164 -0.012868,0.0423 0,0.0553 0.012867,0.013 0.041722,-0.013 0.054589,0 0.028771,0.0292 0.041722,0.0716 0.054589,0.11058 0.00575,0.0175 -0.012868,0.0423 0,0.0553 0.012868,0.013 0.041722,-0.013 0.054589,0 0.012868,0.013 -0.012868,0.0422 0,0.0553 0.012868,0.013 0.046452,-0.0164 0.054589,0 0.016273,0.033 -0.011508,0.0757 0,0.11058 0.016273,0.0494 0.086161,0.064 0.1091776,0.11058 0.016274,0.033 -0.025733,0.0846 0,0.11058 0.012868,0.013 0.041722,-0.013 0.054589,0 0.013136,0.0134 -0.013136,0.20795 0,0.22126 0.012868,0.013 0.041722,-0.013 0.054589,0 0.027296,0.0277 -0.027294,0.13829 0,0.16595 0.012867,0.013 0.041722,-0.013 0.054589,0 0.012868,0.013 -0.012868,0.0422 0,0.0554 0.012868,0.013 0.041722,-0.013 0.054589,0 0.012868,0.013 -0.012868,0.0423 0,0.0553 0.012868,0.013 0.041722,-0.013 0.054589,0 0.012868,0.013 -0.012868,0.0423 0,0.0553 0.012868,0.013 0.041722,-0.013 0.054589,0 0.025733,0.026 -0.025733,0.0846 0,0.11058 0.025733,0.026 0.083445,-0.0261 0.1091777,0 0.012868,0.013 -0.012868,0.0423 0,0.0554 0.025733,0.026 0.076628,-0.0164 0.1091776,0 0.046034,0.0233 0.063144,0.0873 0.1091776,0.11058 0.032551,0.0164 0.076628,-0.0164 0.1091788,0 0.046034,0.0233 0.063144,0.0873 0.1091777,0.11058 0.03431,0.0174 0.1840457,-0.0174 0.2183561,0 0.023018,0.0118 0.030176,0.0471 0.054589,0.0553 0.04913,0.0166 0.1146374,-0.0165 0.163767,0 0.077201,0.0261 0.1411556,0.0846 0.2183561,0.11058 0.034525,0.0118 0.074653,-0.0118 0.1091776,0 0.0386,0.013 0.070577,0.0423 0.1091776,0.0554 0.034525,0.0118 0.083445,-0.0261 0.1091788,0 0.012868,0.013 -0.012868,0.0422 0,0.0553 0.012868,0.013 0.041722,-0.013 0.054589,0 0.012868,0.013 -0.012867,0.0423 0,0.0554 0.00176,0.002 0.1505277,0 0.1637673,0 0.013239,0 0.1620111,-0.001 0.163767,0 0.012868,0.013 -0.012868,0.0423 0,0.0553 0.012868,0.013 0.036392,0 0.054589,0 0.018198,0 0.036392,0 0.054589,0 0.1819634,0 0.3639266,0 0.5458901,0 0.047306,0 0.1867338,0.0106 0.2183561,0 0.0386,-0.013 0.069704,-0.0453 0.1091776,-0.0553 0.035307,-0.009 0.075388,0.0137 0.1091788,0 0.060916,-0.0247 0.1050857,-0.0809 0.163767,-0.11058 0.032551,-0.0164 0.076628,0.0164 0.1091776,0 0.058682,-0.0297 0.1050857,-0.0809 0.1637671,-0.11058 0.016274,-0.008 0.041722,0.013 0.054589,0 0.012868,-0.013 -0.012868,-0.0423 0,-0.0554 0.1675553,-0.16978 0.04539,0.0323 0.2183561,-0.0553 0.016273,-0.008 0,-0.0369 0,-0.0553 0.036392,-0.0185 0.069704,-0.0453 0.1091776,-0.0554 0.035305,-0.009 0.073872,0.009 0.1091776,0 0.078947,-0.02 0.1411556,-0.0846 0.2183562,-0.11058 0.017262,-0.006 0.038313,0.008 0.054589,0 0.023015,-0.0118 0.030176,-0.0471 0.054589,-0.0554 0.034525,-0.0118 0.074653,0.0118 0.1091778,0 0.02441,-0.008 0.03639,-0.0369 0.05459,-0.0553 0.03639,-0.0184 0.07058,-0.0423 0.1091773,-0.0553 0.01726,-0.006 0.03831,0.008 0.05459,0 0.249833,-0.12658 -0.2316443,0.0229 0.163767,-0.11058 0.01726,-0.006 0.03831,0.008 0.05459,0 0.02302,-0.0118 0.03157,-0.0436 0.05459,-0.0554 0.05147,-0.0261 0.112301,-0.0292 0.163767,-0.0553 0.02302,-0.0118 0.03639,-0.0369 0.05459,-0.0554 0.05459,-0.0369 0.102852,-0.086 0.163767,-0.11057 0.03379,-0.0137 0.07465,0.0118 0.109173,0 0.28711,-0.097 0.142525,-0.0998 0.382123,-0.22127 0.01628,-0.008 0.03832,0.008 0.05459,0 0.02302,-0.0118 0.03017,-0.0471 0.05459,-0.0553 0.03452,-0.0118 0.07387,0.009 0.109173,0 0.0988,0.0334 0.101527,-0.0896 0.163765,-0.11057 2.49e-4,-9e-5 0.163716,4e-5 0.163768,0 0.01287,-0.013 -0.01627,-0.0471 0,-0.0554 0.109173,-0.0553 0.08189,0.0277 0.163767,0 0.0386,-0.013 0.07058,-0.0422 0.109184,-0.0553 0.0308,-0.0106 0.127896,0 0.163767,0 0.09098,0 0.181964,0 0.272945,0 0.02458,0 0.147153,-0.008 0.163767,0 0.02302,0.0118 0.03157,0.0436 0.05459,0.0553 0.04367,0.0221 0.120096,-0.0221 0.163766,0 0.02302,0.0118 0.03017,0.0471 0.05459,0.0554 0.04521,0.0152 0.23823,-0.0176 0.272945,0 0.02302,0.0118 0.03157,0.0436 0.05459,0.0553 0.01627,0.008 0.03639,0 0.05459,0 0.03639,0 0.07349,-0.007 0.109173,0 0.05642,0.0118 0.107948,0.0412 0.163766,0.0553 0.01766,0.005 0.03639,0 0.05459,0 0.03639,0 0.07278,0 0.109173,0 0.109173,0 0.218356,0 0.327534,0 0.03797,0 0.253203,0.009 0.272945,0 0.04603,-0.0233 0.06314,-0.0873 0.109173,-0.11057 0.03255,-0.0166 0.07663,0.0164 0.109173,0 0.02302,-0.0118 0.03018,-0.0471 0.05459,-0.0553 0.03452,-0.0118 0.07662,0.0165 0.109173,0 0.01627,-0.008 -0.01287,-0.0422 0,-0.0554 0.01287,-0.013 0.04172,0.013 0.05459,0 0.01287,-0.013 -0.01287,-0.0423 0,-0.0553 0.01287,-0.013 0.03639,0 0.05459,0 0,-0.0185 -0.0082,-0.0388 0,-0.0554 0.113596,-0.23021 -0.0037,0.0591 0.109184,-0.0553 0.01287,-0.013 -0.0082,-0.0388 0,-0.0553 0.03875,-0.0785 0.07043,-0.0321 0.109173,-0.11058 0.02573,-0.0522 0.02267,-0.11744 0.05459,-0.16595 0.01004,-0.0154 0.04172,0.013 0.05459,0 0.213047,-0.21588 -0.01264,-0.0297 0.05459,-0.16594 0.124916,-0.25316 -0.02263,0.23472 0.109173,-0.16595 0.0057,-0.0175 -0.0082,-0.0388 0,-0.0553 0.01155,-0.0233 0.04645,-0.0306 0.05459,-0.0553 0.01155,-0.035 -0.01156,-0.0757 0,-0.11058 -0.0204,-0.1205 0.09098,-0.0184 0.109173,-0.0553 0.01627,-0.033 -0.01156,-0.0757 0,-0.11058 0.01627,-0.0494 0.0929,-0.0611 0.109185,-0.11058 0.01155,-0.035 -0.01155,-0.0757 0,-0.11057 0.0082,-0.0247 0.04308,-0.0321 0.05459,-0.0554 0.0082,-0.0164 0,-0.0369 0,-0.0553 0.0182,-0.0369 0.03201,-0.0763 0.05459,-0.11058 0.05459,-0.083 0.109173,-0.0554 0.163767,-0.16595 0.01627,-0.033 -0.01628,-0.0777 0,-0.11058 0.0082,-0.0165 0.04172,0.013 0.05459,0 0.0035,-0.004 0.102403,-0.21096 0.109173,-0.22126 0.01427,-0.0216 0.04031,-0.0336 0.05459,-0.0554 0.04514,-0.0686 0.06035,-0.15528 0.109173,-0.22125 0.03088,-0.0417 0.08616,-0.064 0.109173,-0.11057 0.01628,-0.033 -0.01627,-0.0777 0,-0.11058 0.0082,-0.0164 0.04449,0.0154 0.05459,0 0.03192,-0.0485 0.03322,-0.11176 0.05459,-0.16595 0.03023,-0.0765 0.08345,-0.14303 0.109173,-0.22126 0.0057,-0.0175 -0.0082,-0.0388 0,-0.0553 0.01156,-0.0233 0.04645,-0.0305 0.05459,-0.0554 0.01156,-0.035 -0.01155,-0.0757 0,-0.11058 0.0082,-0.0247 0.04308,-0.0319 0.05459,-0.0554 0.0082,-0.0164 -0.0057,-0.0378 0,-0.0553 0.01286,-0.0391 0.04172,-0.0716 0.05459,-0.11069 0.0057,-0.0175 -0.0057,-0.0378 0,-0.0554 0.01287,-0.0392 0.04472,-0.0706 0.05459,-0.11058 0.0089,-0.0357 -0.01155,-0.0757 0,-0.11058 0.0082,-0.0247 0.04308,-0.0319 0.05459,-0.0553 0.01731,-0.0351 -0.01773,-0.24064 0,-0.27658 0.01156,-0.0233 0.04308,-0.0321 0.05459,-0.0554 0.007,-0.0143 0,-0.29268 0,-0.33188 0,-0.11058 0,-0.22127 0,-0.3319 0,-0.0554 0.01074,-0.11165 0,-0.16594 -0.0079,-0.0404 -0.03639,-0.0738 -0.05459,-0.11058 -0.05389,-0.10916 -0.101796,-0.22723 -0.163766,-0.33189 -0.03375,-0.057 -0.07984,-0.10644 -0.109185,-0.16595 -0.0082,-0.0164 0.0082,-0.0388 0,-0.0553 -0.01155,-0.0233 -0.04308,-0.0321 -0.05459,-0.0554 -0.02574,-0.0522 -0.02885,-0.11377 -0.05459,-0.16595 -0.02301,-0.0466 -0.08616,-0.064 -0.109173,-0.11058 -0.02574,-0.0521 -0.02885,-0.11377 -0.05459,-0.16595 -0.01156,-0.0233 -0.03639,-0.0369 -0.05459,-0.0553 -0.0182,-0.0554 -0.03322,-0.11176 -0.05459,-0.16595 -0.01511,-0.0383 -0.02582,-0.0815 -0.05459,-0.11058 -0.01287,-0.013 -0.04883,0.0175 -0.05459,0 -0.01726,-0.0525 0.01324,-0.11223 0,-0.16594 -0.01248,-0.0506 -0.0929,-0.0611 -0.109173,-0.11058 -0.01156,-0.035 0.01155,-0.0757 0,-0.11058 -0.0082,-0.0247 -0.04308,-0.0319 -0.05459,-0.0553 -0.0082,-0.0164 0.0057,-0.0378 0,-0.0554 -0.01287,-0.0391 -0.04172,-0.0716 -0.05459,-0.11057 -0.01944,-0.0591 0.02307,-0.22981 0,-0.27658 -0.0082,-0.0164 -0.04645,0.0166 -0.05459,0 -0.01627,-0.033 0,-0.0738 0,-0.11058 0,-0.14751 0,-0.29501 0,-0.44252 0,-0.0185 -0.0082,-0.0388 0,-0.0553 0.01155,-0.0233 0.04308,-0.0321 0.05459,-0.0554 0.01716,-0.0348 -0.01716,-0.18649 0,-0.22126 0.01155,-0.0233 0.04308,-0.0321 0.05459,-0.0554 0.0082,-0.0164 0,-0.0369 0,-0.0553 0,-0.0369 -0.01156,-0.0757 0,-0.11057 0.0082,-0.0247 0.04308,-0.0321 0.05459,-0.0554 0.0082,-0.0164 -0.01287,-0.0422 0,-0.0553 0.01287,-0.013 0.04645,0.0164 0.05459,0 0.02184,-0.0442 -0.02184,-0.1217 0,-0.16595 0.02302,-0.0466 0.08616,-0.064 0.109173,-0.1107 0.0082,-0.0164 -0.0082,-0.0388 0,-0.0553 0.01156,-0.0233 0.04645,-0.0305 0.05459,-0.0553 0.01155,-0.035 -0.01627,-0.0777 0,-0.11058 0.0082,-0.0164 0.04172,0.013 0.05459,0 0.01287,-0.013 -0.0057,-0.0378 0,-0.0553 0.01287,-0.0391 0.04172,-0.0716 0.05459,-0.11058 0.0057,-0.0175 -0.0082,-0.0388 0,-0.0553 0.01155,-0.0233 0.04308,-0.0319 0.05459,-0.0553 0.0082,-0.0166 -0.0082,-0.0388 0,-0.0554 0.01156,-0.0233 0.04308,-0.0319 0.05459,-0.0553 0.0082,-0.0164 0,-0.0369 0,-0.0553 0,-0.0185 -0.0082,-0.0388 0,-0.0554 0.01155,-0.0233 0.04308,-0.0319 0.05459,-0.0553 0.01627,-0.033 -0.02573,-0.0846 0,-0.11058 0.01287,-0.013 0.04173,0.013 0.05459,0 0.01314,-0.0134 -0.01314,-0.20795 0,-0.22126 0.01287,-0.013 0.04172,0.013 0.05459,0 0.01287,-0.013 -0.0057,-0.0378 0,-0.0553 0.01287,-0.0392 0.04172,-0.0716 0.05459,-0.11058 0.01638,-0.0498 -0.01638,-0.11614 0,-0.16595 0.0082,-0.0247 0.04645,-0.0306 0.05459,-0.0553 0.0083,-0.0253 -0.01215,-0.19665 0,-0.22126 0.01156,-0.0233 0.04308,-0.0319 0.05459,-0.0553 0.0082,-0.0166 -0.0082,-0.0388 0,-0.0553 0.01155,-0.0233 0.04308,-0.0319 0.05459,-0.0553 0.0061,-0.0124 0,-0.20812 0,-0.22127 0,-0.12906 0,-0.25813 0,-0.3872 0,-0.0464 0.01155,-0.25306 0,-0.27657 -0.0082,-0.0164 -0.04172,0.013 -0.05459,0 -0.01287,-0.013 0.0082,-0.0388 0,-0.0554 -0.01156,-0.0233 -0.04308,-0.0319 -0.05459,-0.0553 -0.0082,-0.0164 0.01286,-0.0423 0,-0.0554 -0.01287,-0.013 -0.04172,0.013 -0.05459,0 -0.01287,-0.013 0.0082,-0.0388 0,-0.0553 -0.01458,-0.0296 -0.135029,-0.13682 -0.163768,-0.16595 -0.04264,-0.0432 -0.116666,-0.13413 -0.163766,-0.16595 -0.381019,-0.25738 0.268385,0.24546 -0.272946,-0.16594 -0.02059,-0.0156 -0.03157,-0.0436 -0.05459,-0.0553 -0.01627,-0.008 -0.03945,0.0106 -0.05459,0 -0.04282,-0.029 -0.06635,-0.0817 -0.109173,-0.11058 -0.01514,-0.0106 -0.03832,0.008 -0.05459,0 -0.02302,-0.0118 -0.03157,-0.0436 -0.05459,-0.0553 -0.05147,-0.0261 -0.112301,-0.0292 -0.163768,-0.0553 -0.04603,-0.0233 -0.06139,-0.0913 -0.109173,-0.11058 -0.06965,-0.0283 -0.14718,-0.0312 -0.218356,-0.0554 -0.09671,0.0276 -0.102848,-0.086 -0.163767,-0.11058 -0.06965,-0.0283 -0.147181,-0.0313 -0.218356,-0.0554 -0.0386,-0.013 -0.072,-0.0385 -0.109173,-0.0553 -0.126636,-0.057 -0.250656,-0.12154 -0.382123,-0.16594 -0.03452,-0.0118 -0.07387,0.009 -0.109185,0 -0.03947,-0.009 -0.07278,-0.0369 -0.109173,-0.0554 -0.07278,-0.0369 -0.145571,-0.0738 -0.218356,-0.11058 -0.03639,-0.0185 -0.0697,-0.0453 -0.109173,-0.0554 -0.03531,-0.009 -0.07465,0.0118 -0.109173,0 -0.20509,0.12951 -0.172289,-0.13194 -0.272945,-0.16594 -0.03452,-0.0118 -0.07387,0.009 -0.109185,0 -0.287051,-0.0727 -0.438204,-0.18489 -0.709657,-0.27658 -0.01726,-0.006 -0.03674,0.004 -0.05459,0 -0.07356,-0.0149 -0.144788,-0.0404 -0.218356,-0.0553 -0.01785,-0.004 -0.03832,0.008 -0.05459,0 -0.02302,-0.0118 -0.03157,-0.0436 -0.05459,-0.0553 -0.05147,-0.026 -0.11034,-0.0337 -0.163766,-0.0553 -0.03778,-0.0153 -0.07058,-0.0422 -0.109173,-0.0554 -0.01726,-0.006 -0.03639,0 -0.05459,0 -0.05459,0 -0.110807,0.0134 -0.163767,0 -0.02496,-0.006 -0.02984,-0.0481 -0.05459,-0.0553 -0.109173,-0.0185 -0.218355,-0.0369 -0.327534,-0.0554 -0.0182,-0.0184 -0.03157,-0.0436 -0.05459,-0.0553 -0.01627,-0.008 -0.03639,0 -0.05459,0 -0.05459,0 -0.110235,0.0106 -0.163766,0 -0.03989,-0.008 -0.07141,-0.04 -0.109185,-0.0553 -0.05343,-0.0217 -0.107947,-0.0412 -0.163766,-0.0553 -0.03531,-0.009 -0.07279,0 -0.109179,0 -0.05459,0 -0.109179,0 -0.163767,0 -0.0182,0 -0.03733,0.006 -0.05459,0 -0.0386,-0.013 -0.0697,-0.0453 -0.109178,-0.0554 -0.03531,-0.009 -0.07278,0 -0.109177,0 -0.109178,0 -0.218356,0 -0.3275343,0 -0.2911417,0 -0.5822831,0 -0.8734244,0 -0.2729453,0 -0.5458902,0 -0.8188354,0 -0.061455,0 -0.3971806,-0.0134 -0.4367119,0 -0.0386,0.013 -0.072786,0.0369 -0.1091777,0.0554 -0.072785,0 -0.1469838,-0.0144 -0.2183557,0 -0.025236,0.005 -0.030176,0.0471 -0.054589,0.0553 -0.034525,0.0118 -0.072786,0 -0.1091776,0 -0.054589,0 -0.1102386,-0.0106 -0.1637673,0 -0.039898,0.008 -0.069704,0.0453 -0.1091776,0.0553 -0.035306,0.009 -0.072786,0 -0.1091777,0 -0.072785,0 -0.1455708,0 -0.218356,0 -0.018198,0 -0.037327,-0.006 -0.054589,0 -0.2826518,0.0954 0.12643,0.034 -0.327534,0.11058 -0.035897,0.006 -0.073493,-0.007 -0.1091776,0 -0.056425,0.0118 -0.1068037,0.0471 -0.1637673,0.0554 -0.1080805,0.0156 -0.2183558,0 -0.327534,0 -0.036392,0 -0.07328,-0.006 -0.1091777,0 -0.072785,0.0184 -0.1455708,0.0369 -0.218356,0.0553 -0.036392,0.0185 -0.069704,0.0453 -0.1091777,0.0554 -0.035307,0.009 -0.07328,-0.006 -0.1091788,0 -0.074004,0.0125 -0.1440846,0.0446 -0.2183558,0.0553 -0.090067,0.013 -0.1832014,-0.0151 -0.2729452,0 -0.072786,0.0184 -0.1455705,0.0369 -0.2183561,0.0553 -0.018194,0.0185 -0.030176,0.0471 -0.054589,0.0554 -0.034525,0.0118 -0.073492,-0.007 -0.1091788,0 -0.056425,0.0118 -0.107008,0.0458 -0.1637671,0.0553 -0.053846,0.009 -0.1091776,0 -0.1637669,0 -0.018198,0 -0.037327,-0.006 -0.054589,0 -0.092962,0.0315 -0.1828775,0.0716 -0.2729449,0.11069 -0.1133968,0.0492 -0.1373971,0.0878 -0.2729452,0.11058 -0.053846,0.009 -0.1119788,-0.0175 -0.1637669,0 -0.5871755,0.19833 0.040301,0.0349 -0.2183562,0.16595 -0.016273,0.008 -0.037327,-0.006 -0.054589,0 -0.0386,0.013 -0.070579,0.0423 -0.1091788,0.0553 -0.017262,0.006 -0.038313,-0.008 -0.054589,0 -0.023018,0.0118 -0.033178,0.0408 -0.054589,0.0554 -0.06771,0.0458 -0.1455708,0.0738 -0.218356,0.11058 -0.036392,0.0185 -0.070577,0.0423 -0.1091777,0.0553 -0.017262,0.006 -0.041722,-0.013 -0.054589,0 -0.012868,0.013 0.012868,0.0423 0,0.0554 -0.2130463,0.21588 -0.029317,-0.0128 -0.1637669,0.0553 -0.023017,0.0118 -0.031572,0.0436 -0.054589,0.0553 -0.1344501,0.0681 0.049279,-0.16057 -0.163767,0.0554 -0.012866,0.013 0.012866,0.0422 0,0.0553 -0.012866,0.013 -0.038313,-0.008 -0.054589,0 -0.1810489,0.18346 0.051467,-0.026 -0.1091776,0.0553 -0.2271864,0.11507 0.058358,-0.004 -0.054589,0.11058 -0.012866,0.013 -0.038313,-0.008 -0.054589,0 -0.023017,0.0118 -0.031572,0.0436 -0.054589,0.0553 -0.016276,0.008 -0.038313,-0.008 -0.054589,0 -0.2271864,0.11507 0.058357,-0.004 -0.054589,0.11058 -0.012866,0.013 -0.041722,-0.013 -0.054589,0 -0.012866,0.013 0.012866,0.0423 0,0.0553 -0.012866,0.013 -0.041722,-0.013 -0.054589,0 -0.012866,0.013 0,0.0369 0,0.0553 -0.018197,0 -0.041722,-0.013 -0.054589,0 -0.012866,0.013 0.012866,0.0422 0,0.0553 -0.012866,0.013 -0.041722,-0.013 -0.054589,0 -0.012866,0.013 0.012866,0.0423 0,0.0554 -0.012866,0.013 -0.041722,-0.013 -0.054589,0 -0.025734,0.0261 0.025733,0.0846 0,0.11058 -0.012866,0.013 -0.041722,-0.013 -0.054589,0 -0.025734,0.0261 0.025733,0.0846 0,0.11057 -0.012866,0.013 -0.041723,-0.013 -0.054589,0 -0.028771,0.0292 -0.032019,0.0763 -0.054589,0.11058 -0.014274,0.0217 -0.043081,0.0321 -0.054589,0.0553 -0.00813,0.0164 0.010096,0.04 0,0.0554 -0.028549,0.0434 -0.072785,0.0738 -0.10917764,0.11058 -0.0181967,0.0185 -0.043081,0.0321 -0.0545888,0.0553 -0.008135,0.0164 0.008135,0.0388 0,0.0554 -0.11359286,0.23021 0.00377,-0.0591 -0.10917762,0.0553 -0.0128664,0.013 0.008135,0.0388 0,0.0554 -0.0230169,0.0466 -0.0806297,0.0673 -0.10917763,0.11058 -0.0225699,0.0343 -0.0320189,0.0763 -0.0545888,0.11058 -0.0142739,0.0216 -0.0391489,0.0344 -0.0545888,0.0553 -0.0393648,0.0532 -0.0698128,0.11271 -0.10917763,0.16595 -0.0308798,0.0417 -0.0861619,0.064 -0.10917763,0.11058 -0.0162756,0.033 0.0162756,0.0777 0,0.1107 -0.12491626,0.25316 0.0226259,-0.23472 -0.1091781,0.16595 -0.012516,0.0381 0.0161043,0.13331 0,0.16593 -0.0115079,0.0233 -0.0430806,0.032 -0.0545891,0.0553 -0.0176962,0.0358 0.0171432,0.27978 0,0.3319 -0.0128669,0.0392 -0.0417223,0.0716 -0.0545891,0.11058 -0.0114215,0.0348 0,0.17674 0,0.22126 0,0.16595 0,0.33189 0,0.49784 0,0.0921 0,0.18439 0,0.27657 0,0.0184 0,0.0369 0,0.0553 0,0.0185 -0.008137,0.0388 0,0.0554 0.12491625,0.25316 -0.0226257,-0.23472 0.10917798,0.16595 0.005754,0.0175 0,0.0369 0,0.0553 0,0.0847 -0.005754,0.12955 0.054589,0.22126 0.0100933,0.0154 0.0417223,-0.013 0.0545891,0 0.0128664,0.013 -0.004412,0.0375 0,0.0553 0.0139553,0.0565 0.0406335,0.10939 0.0545888,0.16595 0.0334031,0.13539 -0.11138385,-0.031 0.0545888,0.22126 0.0100956,0.0154 0.0417224,-0.013 0.0545888,0 2.8992e-4,3e-4 -4.5704e-4,0.16409 0,0.16595 0.009874,0.04 0.0417224,0.0716 0.0545888,0.11058 0.005754,0.0175 -0.008135,0.0388 0,0.0553 0.0115079,0.0233 0.043081,0.0321 0.0545888,0.0553 0.00831,0.0168 0,0.14105 0,0.16595 0,0.11058 0,0.22127 0,0.33189 0,0.0369 -0.0162756,0.0777 0,0.11058 0.008135,0.0164 0.0417224,-0.013 0.0545888,0 0.0128664,0.013 0,0.0369 0,0.0553 0,0.0369 0,0.0738 0,0.11058 0,0.25814 0,0.51628 0,0.77442 0,0.0738 0,0.1475 0,0.22125 0,0.0369 0.0115079,0.0757 0,0.11058 -0.0128664,0.0391 -0.0417224,0.0716 -0.0545888,0.11058 -0.005754,0.0175 0.008135,0.0388 0,0.0553 -0.0115079,0.0233 -0.0464516,0.0306 -0.0545888,0.0554 -0.0115079,0.035 0,0.0738 0,0.11058 0,0.0185 0.008135,0.0388 0,0.0554 -0.0115079,0.0233 -0.0464516,0.0306 -0.0545888,0.0553 -0.0115079,0.035 0,0.0738 0,0.11057 0,0.0822 0.0132889,0.15248 -0.0545888,0.22127 -0.0128664,0.013 -0.0417224,-0.013 -0.0545888,0 -0.0128664,0.013 0,0.0369 0,0.0553 0,0.0369 0.0162756,0.0777 0,0.11058 -0.008135,0.0164 -0.0417224,-0.013 -0.0545888,0 -0.0128664,0.013 0.005754,0.0378 0,0.0553 -0.0128664,0.0392 -0.0417223,0.0716 -0.0545891,0.11058 -0.005754,0.0175 0.005754,0.0378 0,0.0553 -0.0128669,0.0391 -0.0417223,0.0716 -0.054589,0.11057 -0.005754,0.0175 0.008137,0.0388 0,0.0554 -0.0230169,0.0466 -0.0929026,0.0611 -0.10917798,0.11058 -0.0115079,0.035 0.0162755,0.0777 0,0.1107 -0.008137,0.0164 -0.0417223,-0.013 -0.054589,0 -0.0257334,0.026 0.0162755,0.0776 0,0.11057 -0.0115079,0.0233 -0.04308061,0.032 -0.05458905,0.0553 -0.01082159,0.0219 0.01116006,0.15463 0,0.16594 -0.01286687,0.013 -0.04172219,-0.013 -0.05458893,0 -0.01286687,0.013 0,0.0369 0,0.0553 0,0.12907 0,0.25814 0,0.38721 0,0.0553 0,0.11058 0,0.16595 0,0.0185 -0.01286687,0.0422 0,0.0554 0.01286686,0.013 0.0417223,-0.013 0.05458893,0 0.02729441,0.0277 -0.02729441,0.13829 0,0.16594 0.01286686,0.013 0.0417223,-0.013 0.05458905,0 0.0111601,0.0118 -0.0108216,0.14402 0,0.16595 0.0832363,0.16869 0.0432762,-0.10112 0.10917798,0.16595 0.008827,0.0358 -0.0115079,0.0757 0,0.11057 0.0162754,0.0494 0.0861613,0.064 0.10917798,0.11058 0.008137,0.0164 0,0.0369 0,0.0554 0,0.0369 -0.0115079,0.0757 0,0.11058 0.008137,0.0247 0.0430806,0.0321 0.054589,0.0554 0.0162756,0.033 -0.0162756,0.0777 0,0.11069 0.0115079,0.0233 0.043081,0.0319 0.0545888,0.0554 0.008135,0.0164 -0.008135,0.0388 0,0.0553 0.0115079,0.0233 0.043081,0.0321 0.0545888,0.0553 0.0162756,0.033 -0.0162756,0.0777 0,0.11057 0.0115079,0.0233 0.043081,0.0319 0.0545888,0.0553 0.008135,0.0166 0,0.0369 0,0.0553 0.0181967,0.0185 0.043081,0.0321 0.0545888,0.0554 0.008135,0.0164 -0.008135,0.0388 0,0.0553 0.0230169,0.0466 0.0929032,0.0611 0.10917763,0.11057 0.0115079,0.035 -0.0162756,0.0777 0,0.11058 0.008135,0.0164 0.0417224,-0.013 0.0545888,0 0.025734,0.0261 -0.025734,0.0846 0,0.11058 0.0128664,0.013 0.0417224,-0.013 0.0545888,0 0.0128664,0.013 -0.008135,0.0388 0,0.0554 0.0115079,0.0233 0.043081,0.032 0.0545888,0.0553 0.0162756,0.033 -0.0257328,0.0846 0,0.11057 0.0128664,0.013 0.0417224,-0.013 0.0545888,0 0.0272944,0.0277 -0.0272944,0.13829 0,0.16595 0.0128664,0.013 0.0464516,-0.0164 0.0545888,0 0.017156,0.0348 -0.0171555,0.1865 0,0.22127 0.023017,0.0466 0.092903,0.0611 0.10917766,0.11057 0.011508,0.035 0,0.0738 0,0.11058 0,0.0184 -0.00813,0.0388 0,0.0553 0.011508,0.0233 0.046452,0.0305 0.054589,0.0554 8.25e-5,2.5e-4 -5.21e-5,0.16589 0,0.16595 0.012866,0.013 0.041722,-0.013 0.054589,0 0.012866,0.013 -0.012866,0.0422 0,0.0554 0.012866,0.013 0.036392,0 0.054589,0 0.024584,0 0.1471537,0.008 0.163767,0 0.21175,-0.10727 -0.1025716,-0.004 0.1091777,-0.11058 0.03255,-0.0164 0.083445,0.026 0.1091776,0 0.028771,-0.0292 0.025818,-0.0815 0.054589,-0.11058 0.025733,-0.026 0.076628,0.0164 0.1091777,0 0.023017,-0.0118 0.031572,-0.0436 0.054589,-0.0554 0.03255,-0.0166 0.083445,0.026 0.1091776,0 0.028771,-0.0292 0.025818,-0.0815 0.054589,-0.11058 0.025733,-0.026 0.076628,0.0166 0.1091776,0 0.023017,-0.0118 0.031572,-0.0436 0.054589,-0.0553 0.016275,-0.008 0.038313,0.008 0.054589,0 0.023017,-0.0118 0.030176,-0.0471 0.054589,-0.0554 0.034525,-0.0118 0.072785,0 0.1091776,0 0.018198,0 0.038313,0.008 0.054589,0 0.023015,-0.0118 0.030176,-0.0471 0.054589,-0.0553 0.034525,-0.0118 0.072785,0 0.1091777,0 0.018198,0 0.038313,0.008 0.054589,0 0.023018,-0.0118 0.031572,-0.0436 0.054589,-0.0553 0.016273,-0.008 0.038313,0.008 0.054589,0 0.023018,-0.0118 0.031572,-0.0436 0.054589,-0.0554 0.036177,-0.0183 0.1726034,0.0155 0.2183558,0 0.0386,-0.013 0.075324,-0.0324 0.1091788,-0.0553 0.021412,-0.0144 0.030176,-0.0471 0.054589,-0.0553 0.013609,-0.005 0.2673215,0.006 0.2729449,0 0.012868,-0.013 -0.012868,-0.0423 0,-0.0554 0.027294,-0.0277 0.1364726,0.0277 0.163767,0 0.012868,-0.013 -0.012868,-0.0422 0,-0.0553 0.025733,-0.026 0.083445,0.026 0.1091788,0 0.025733,-0.026 -0.025733,-0.0846 0,-0.11058 0.027294,-0.0277 0.1364723,0.0277 0.1637669,0 0.012868,-0.013 -0.012868,-0.0423 0,-0.0553 0.00247,-0.002 0.2472063,0 0.2729449,0 0.018198,0 0.041722,-0.013 0.054589,0 0.012868,0.013 -0.017654,0.0509 0,0.0553 0.070612,0.0179 0.1455705,0 0.2183561,0 z"
       id="path3737"
       inkscape:connector-curvature="0"
       inkscape:export-xdpi="96"
       inkscape:export-ydpi="96" />
  </g>
</svg>
