<?xml version="1.0" encoding="UTF-8" standalone="no"?>
<!-- Created with Inkscape (http://www.inkscape.org/) -->

<svg
   xmlns:dc="http://purl.org/dc/elements/1.1/"
   xmlns:cc="http://creativecommons.org/ns#"
   xmlns:rdf="http://www.w3.org/1999/02/22-rdf-syntax-ns#"
   xmlns:svg="http://www.w3.org/2000/svg"
   xmlns="http://www.w3.org/2000/svg"
   xmlns:sodipodi="http://sodipodi.sourceforge.net/DTD/sodipodi-0.dtd"
   xmlns:inkscape="http://www.inkscape.org/namespaces/inkscape"
   width="64"
   height="64"
   viewBox="0 0 16.933333 16.933333"
   version="1.1"
   id="svg3719"
   inkscape:version="0.92.5 (2060ec1f9f, 2020-04-08)"
   sodipodi:docname="mountain.svg"
   inkscape:export-filename="C:\Users\Jay\projects\Jays TD\Textures\mountain.png"
   inkscape:export-xdpi="96.000008"
   inkscape:export-ydpi="96.000008">
  <defs
     id="defs3713" />
  <sodipodi:namedview
     id="base"
     pagecolor="#ffffff"
     bordercolor="#666666"
     borderopacity="1.0"
     inkscape:pageopacity="0.0"
     inkscape:pageshadow="2"
     inkscape:zoom="2.8284271"
     inkscape:cx="-90.692462"
     inkscape:cy="4.6306428"
     inkscape:document-units="mm"
     inkscape:current-layer="layer1"
     showgrid="false"
     units="px"
     inkscape:window-width="1151"
     inkscape:window-height="812"
     inkscape:window-x="840"
     inkscape:window-y="341"
     inkscape:window-maximized="0" />
  <metadata
     id="metadata3716">
    <rdf:RDF>
      <cc:Work
         rdf:about="">
        <dc:format>image/svg+xml</dc:format>
        <dc:type
           rdf:resource="http://purl.org/dc/dcmitype/StillImage" />
        <dc:title />
      </cc:Work>
    </rdf:RDF>
  </metadata>
  <g
     inkscape:label="Layer 1"
     inkscape:groupmode="layer"
     id="layer1"
     transform="translate(0,-280.06667)">
    <path
       style="fill:#cccccc;stroke:#000000;stroke-width:0.26458332px;stroke-linecap:butt;stroke-linejoin:miter;stroke-opacity:1"
       d="m 1.964431,293.77272 c 0.013708,-0.0548 0.014493,-0.19433 0.093544,-0.23386 0.013945,-0.007 0.035748,0.011 0.046772,0 0.022049,-0.022 -0.013945,-0.0657 0,-0.0935 0.028063,-0.0561 0.1122532,-0.0842 0.1403165,-0.14032 0.057599,-0.1152 -0.1357672,0.0422 0.046772,-0.14031 0.011024,-0.011 0.032827,0.007 0.046772,0 0.071635,-0.0358 0.036577,-0.0833 0.093544,-0.14032 0.011024,-0.011 0.031181,0 0.046772,0 0.015591,-0.0156 0.034542,-0.0284 0.046772,-0.0468 0.019338,-0.029 0.027434,-0.0645 0.046772,-0.0935 0.01223,-0.0183 0.036912,-0.027 0.046772,-0.0468 0.057599,-0.1152 -0.1357672,0.0422 0.046772,-0.14032 0.011025,-0.011 0.035748,0.011 0.046772,0 0.024651,-0.0247 0.027434,-0.0645 0.046772,-0.0935 0.012232,-0.0184 0.0398,-0.0259 0.046772,-0.0468 0,-0.21292 -0.022048,-0.003 0.046772,-0.14032 0.013944,-0.0279 -0.013944,-0.0657 0,-0.0935 0.00986,-0.0197 0.036911,-0.027 0.046772,-0.0468 0.00697,-0.0139 -0.00697,-0.0328 0,-0.0468 0.00986,-0.0197 0.036912,-0.0271 0.046772,-0.0468 0.024903,-0.0498 -0.024903,-0.0437 0,-0.0935 0.00986,-0.0197 0.036912,-0.0271 0.046772,-0.0468 0.00697,-0.0139 -0.00493,-0.032 0,-0.0468 0.011025,-0.0331 0.035748,-0.0605 0.046772,-0.0935 0.0088,-0.0264 0,-0.10959 0,-0.14032 0,-0.078 0,-0.15591 0,-0.23386 0,-0.0312 -0.00986,-0.064 0,-0.0935 0.011025,-0.0331 0.035748,-0.0605 0.046772,-0.0935 0.0086,-0.0258 -0.01,-0.17709 0,-0.18709 0.011025,-0.011 0.035748,0.011 0.046772,0 0.012798,-0.0128 -0.012687,-0.16171 0,-0.18709 0.00986,-0.0197 0.036912,-0.027 0.046772,-0.0468 0.00524,-0.0105 0,-0.17597 0,-0.18709 0,-0.0935 0,-0.18709 0,-0.28063 0,-0.0468 -0.011343,-0.0949 0,-0.14032 0.00535,-0.0214 0.036912,-0.027 0.046772,-0.0468 0.00745,-0.0149 0,-0.19206 0,-0.23386 0,-0.0468 0,-0.0935 0,-0.14032 0,-0.0156 -0.00378,-0.0316 0,-0.0468 0.011957,-0.0478 0.034815,-0.0925 0.046772,-0.14032 0.010004,-0.04 0,-0.18711 0,-0.23386 0,-0.0156 -0.00697,-0.0328 0,-0.0468 0.00986,-0.0197 0.041424,-0.0254 0.046772,-0.0468 0.016081,-0.0643 -0.015491,-0.17189 0,-0.23386 0.011957,-0.0478 0.034815,-0.0925 0.046772,-0.14032 0.00756,-0.0303 0,-0.0624 0,-0.0935 0,-0.0624 0,-0.12473 0,-0.18709 0,-0.18709 0,-0.37418 0,-0.56127 0,-0.15055 0.011025,0.0799 -0.046772,-0.0935 -0.016566,-0.0497 0.016566,-0.13739 0,-0.18709 -0.011025,-0.0331 -0.035748,-0.0605 -0.046772,-0.0935 -0.050049,-0.15015 0.050049,0.0566 0,-0.0935 -0.011025,-0.0331 -0.035748,-0.0605 -0.046772,-0.0935 -0.00493,-0.0148 0,-0.0312 0,-0.0468 0,-0.0312 0,-0.0624 0,-0.0935 0,-0.0779 0,-0.15591 0,-0.23386 0,-0.12473 0,-0.24945 0,-0.37418 0,-0.0312 0,-0.0624 0,-0.0935 0,-0.0156 -0.00493,-0.032 0,-0.0468 0.11293,-0.33879 -0.013483,0.0737 0.093544,-0.14032 0.00697,-0.014 0,-0.0312 0,-0.0468 0.015592,-0.0156 0.036912,-0.027 0.046772,-0.0468 0.00697,-0.014 -0.011025,-0.0358 0,-0.0468 0.011025,-0.011 0.035748,0.011 0.046772,0 0.011025,-0.011 -0.011025,-0.0357 0,-0.0468 0.011025,-0.011 0.035748,0.011 0.046772,0 0.096773,-0.0968 -0.1478825,0.004 0.046772,-0.0935 0.013943,-0.007 0.035748,0.011 0.046772,0 0.011025,-0.011 -0.011025,-0.0358 0,-0.0468 0.011025,-0.011 0.032827,0.007 0.046772,0 0.1551236,-0.15512 -0.044097,0.0221 0.093544,-0.0468 0.019722,-0.01 0.027051,-0.0369 0.046772,-0.0468 0.013944,-0.007 0.035748,0.011 0.046772,0 0.096774,-0.0968 -0.1478822,0.004 0.046772,-0.0935 0.027889,-0.014 0.071496,0.022 0.093545,0 0.011025,-0.011 -0.013944,-0.0398 0,-0.0468 0.027889,-0.0139 0.063963,0.01 0.093544,0 0.145991,-0.0487 -0.015592,-0.0312 0.046772,-0.0935 0.011025,-0.011 0.032827,0.007 0.046772,0 0.019722,-0.01 0.027051,-0.0369 0.046772,-0.0468 0.013943,-0.007 0.035748,0.011 0.046772,0 0.011025,-0.011 -0.00697,-0.0328 0,-0.0468 0.00986,-0.0197 0.031181,-0.0312 0.046772,-0.0468 0.015592,-0.0156 0.027052,-0.0369 0.046772,-0.0468 0.013944,-0.007 0.035748,0.011 0.046772,0 0.011025,-0.011 -0.011025,-0.0358 0,-0.0468 0.00956,-0.01 0.1217716,0.009 0.1403165,0 0.019722,-0.01 0.027051,-0.0369 0.046772,-0.0468 0.013944,-0.007 0.035748,0.011 0.046772,0 0.011025,-0.011 -0.011025,-0.0358 0,-0.0468 0.00956,-0.01 0.1217718,0.009 0.1403165,0 0.019722,-0.01 0.027051,-0.0369 0.046772,-0.0468 0.013944,-0.007 0.032827,0.007 0.046772,0 0.2140577,-0.10703 -0.1984738,0.0194 0.1403165,-0.0935 0.029581,-0.01 0.065655,0.0139 0.093544,0 0.019722,-0.01 0.027051,-0.0369 0.046772,-0.0468 0.027597,-0.0138 0.108145,0.0107 0.1403165,0 0.033073,-0.011 0.060471,-0.0358 0.093544,-0.0468 0.01479,-0.005 0.031982,0.005 0.046772,0 0.033073,-0.011 0.060472,-0.0357 0.093545,-0.0468 0.029581,-0.01 0.065655,0.0139 0.093544,0 0.1946545,-0.0973 -0.050001,0.003 0.046772,-0.0935 0.022048,-0.022 0.065655,0.0139 0.093544,0 0.019722,-0.01 0.031181,-0.0312 0.046772,-0.0468 0.031181,-0.0312 0.069083,-0.0568 0.093544,-0.0935 0.00865,-0.013 -0.011025,-0.0358 0,-0.0468 0.031181,-0.0156 0.062363,-0.0312 0.093544,-0.0468 0,-0.0156 -0.011025,-0.0358 0,-0.0468 0.011025,-0.011 0.0398,0.014 0.046772,0 0.013944,-0.0279 -0.013944,-0.0657 0,-0.0935 0.00697,-0.0139 0.035748,0.011 0.046772,0 0.096773,-0.0968 -0.1478825,0.004 0.046772,-0.0935 0.013944,-0.007 0.035748,0.011 0.046772,0 0.011025,-0.011 -0.00493,-0.032 0,-0.0468 0.011025,-0.0331 0.027434,-0.0645 0.046772,-0.0935 0.024461,-0.0367 0.073823,-0.0541 0.093544,-0.0936 0.013943,-0.0279 -0.022048,-0.0715 0,-0.0935 0.024651,-0.0247 0.068893,-0.0221 0.093545,-0.0468 0.011025,-0.011 -0.00697,-0.0328 0,-0.0468 0.00986,-0.0197 0.034542,-0.0284 0.046772,-0.0468 0.019338,-0.029 0.027434,-0.0645 0.046772,-0.0935 0.1551239,-0.15512 -0.022048,0.0441 0.046772,-0.0935 0.087157,-0.17432 0.00639,0.0808 0.093544,-0.0935 0.00697,-0.0139 -0.00493,-0.032 0,-0.0468 0.011025,-0.0331 0.038317,-0.0597 0.046772,-0.0936 0.00756,-0.0302 0,-0.0624 0,-0.0935 0,-0.0156 -0.00697,-0.0328 0,-0.0468 0.00986,-0.0197 0.036912,-0.027 0.046772,-0.0468 0.018709,-0.0374 -0.018709,-0.1029 0,-0.14032 0.00986,-0.0197 0.036912,-0.0271 0.046772,-0.0468 0.016153,-0.0323 -0.016417,-0.21745 0,-0.23386 0.011025,-0.011 0.031181,0 0.046772,0 0.093544,0 0.1870887,0 0.280633,0 0.3585866,0 0.7171732,0 1.0757598,0 0.1247259,0 0.2494516,0 0.3741775,0 0.031181,0 0.062363,0 0.093544,0 0.015592,0 0.031982,0.005 0.046772,0 0.033073,-0.011 0.060471,-0.0358 0.093544,-0.0468 0.029581,-0.01 0.062363,0 0.093545,0 0.109135,0 0.2182701,0 0.3274052,0 0.1403164,0 0.2806329,0 0.4209494,0 0.015589,0 0.031181,0 0.046772,0 0.015592,0 0.035748,-0.011 0.046772,0 0.011025,0.011 -0.011025,0.0358 0,0.0468 0.022048,0.022 0.065655,-0.0139 0.093545,0 0.019719,0.01 0.027051,0.0369 0.046772,0.0468 0.013946,0.007 0.032827,-0.007 0.046772,0 0.019722,0.01 0.027051,0.0369 0.046772,0.0468 0.013943,0.007 0.032827,-0.007 0.046772,0 0.019722,0.01 0.027052,0.0369 0.046773,0.0468 0.01394,0.007 0.03283,-0.007 0.04677,0 0.194654,0.0973 -0.05,-0.003 0.04677,0.0935 0.01103,0.011 0.03575,-0.011 0.04677,0 0.02339,0.0234 -0.02339,0.11693 0,0.14031 0.01103,0.011 0.03575,-0.011 0.04677,0 0.01103,0.011 -0.007,0.0328 0,0.0468 0.0099,0.0197 0.0398,0.0258 0.04677,0.0468 0.0099,0.0296 -0.0076,0.0633 0,0.0935 0.0085,0.0338 0.03575,0.0605 0.04677,0.0935 0.0049,0.0148 -0.01103,0.0357 0,0.0468 0.01103,0.011 0.03575,-0.011 0.04677,0 0.08727,0.0873 0.02174,0.13702 0.04677,0.18709 0.0099,0.0197 0.03454,0.0284 0.04677,0.0468 0.103047,0.0236 0.02472,0.0962 0.04677,0.14032 0.0099,0.0197 0.03691,0.0271 0.04677,0.0468 0.01394,0.0279 -0.01395,0.0657 0,0.0935 0.0099,0.0197 0.0398,0.0259 0.04677,0.0468 0.0091,0.0274 0,0.24049 0,0.28064 0,0.0935 0,0.18709 0,0.28063 0,0.0312 0,0.0624 0,0.0935 0,0.0156 0.007,0.0328 0,0.0468 -0.0099,0.0197 -0.03691,0.0271 -0.04677,0.0468 -0.01395,0.0279 0.02205,0.0715 0,0.0935 -0.01103,0.011 -0.03575,-0.011 -0.04677,0 -0.01103,0.011 0,0.0312 0,0.0468 0,0.0779 0,0.1559 0,0.23386 0,0.0156 0.01103,0.0357 0,0.0468 -0.01103,0.011 -0.03575,-0.011 -0.04677,0 -0.01102,0.011 0,0.0312 0,0.0468 0,0.044 -0.0089,0.20725 0,0.23386 0.007,0.0209 0.03118,0.0312 0.04677,0.0468 0.01559,0.0156 0.02705,0.0369 0.04677,0.0468 0.01394,0.007 0.03575,-0.011 0.04677,0 0.01103,0.011 -0.01103,0.0357 0,0.0468 0.02465,0.0247 0.06889,0.0221 0.09354,0.0468 0.02465,0.0247 0.02212,0.0689 0.04677,0.0935 0.01103,0.011 0.03283,-0.007 0.04677,0 0.05028,0.0251 0.09535,0.0598 0.140317,0.0936 0.01764,0.0132 0.03118,0.0312 0.04677,0.0468 0.01559,0.0312 0.01999,0.0712 0.04677,0.0935 -0.06771,0.51423 0.196965,0.0776 0.280633,0.14031 0.498903,0.37418 -0.02079,0.0208 0.187089,0.18709 0.06087,0.0487 0.126217,0.0916 0.187089,0.14032 0.03443,0.0275 0.06236,0.0624 0.09354,0.0935 0.01559,0.0156 0.03454,0.0284 0.04677,0.0468 0.0058,0.009 0.09055,0.1841 0.09354,0.18709 0.01103,0.011 0.03575,-0.011 0.04677,0 0.01384,0.0138 -0.01449,0.15812 0,0.18709 0.0099,0.0197 0.03691,0.027 0.04677,0.0468 0.007,0.014 0,0.0312 0,0.0468 0,0.0312 0,0.0624 0,0.0935 0,0.0935 0,0.18709 0,0.28063 0,0.23386 0,0.46772 0,0.70159 0,0.0779 0,0.1559 0,0.23386 0,0.0468 -0.01479,0.0959 0,0.14031 0.007,0.0209 0.03454,0.0284 0.04677,0.0468 0.01934,0.029 0.02743,0.0645 0.04677,0.0936 0.01223,0.0183 0.0398,0.0258 0.04677,0.0468 0.0099,0.0296 -0.01394,0.0657 0,0.0935 0.007,0.0139 0.0398,-0.014 0.04677,0 0.01394,0.0279 -0.0099,0.064 0,0.0935 0.01394,0.0418 0.07382,0.0541 0.09355,0.0935 0.007,0.014 -0.0049,0.032 0,0.0468 0.05652,0.16956 0.02219,0.0333 0.09354,0.14031 0.01559,0.0312 0.03118,0.0624 0.04677,0.0935 0,0.0156 -0.007,0.0328 0,0.0468 0.0099,0.0197 0.03691,0.027 0.04677,0.0468 0.0093,0.0186 -0.0096,0.13076 0,0.14032 0.01103,0.011 0.0398,-0.0139 0.04677,0 0.01394,0.0279 0,0.0624 0,0.0935 0,0.0156 -0.01103,0.0358 0,0.0468 0.01103,0.011 0.03575,-0.011 0.04677,0 0.0096,0.01 -0.0093,0.12178 0,0.14032 0.0099,0.0197 0.03691,0.027 0.04677,0.0468 0.0147,0.0294 -0.0147,0.15769 0,0.18709 0.0099,0.0197 0.03691,0.027 0.04677,0.0468 0.007,0.014 -0.0049,0.032 0,0.0468 0.01103,0.0331 0.03575,0.0605 0.04677,0.0935 0.0049,0.0148 -0.0049,0.032 0,0.0468 0.01103,0.0331 0.03575,0.0605 0.04677,0.0935 0.0049,0.0148 -0.0049,0.032 0,0.0468 0.01103,0.0331 0.03575,0.0605 0.04677,0.0935 0.0049,0.0148 -0.007,0.0328 0,0.0468 0.0099,0.0197 0.0398,0.0258 0.04677,0.0468 0.0099,0.0296 -0.01395,0.0657 0,0.0935 0.007,0.014 0.03575,-0.011 0.04677,0 0.01103,0.011 -0.0049,0.032 0,0.0468 0.01103,0.0331 0.03575,0.0605 0.04677,0.0935 0.0049,0.0148 -0.007,0.0328 0,0.0468 0.0099,0.0197 0.03691,0.027 0.04677,0.0468 0.02205,0.0441 0.03482,0.0925 0.04677,0.14032 0.0038,0.0151 -0.01103,0.0357 0,0.0468 0.01103,0.011 0.03812,-0.013 0.04677,0 0.02735,0.041 0.02846,0.0945 0.04677,0.14032 0.01295,0.0324 0.02743,0.0645 0.04677,0.0935 0.01223,0.0183 0.03454,0.0284 0.04677,0.0468 0.03868,0.058 0.05171,0.13131 0.09354,0.18709 0.02646,0.0353 0.07382,0.0541 0.09354,0.0935 0.01395,0.0279 -0.01394,0.0657 0,0.0935 0.007,0.014 0.03283,-0.007 0.04677,0 0.01972,0.01 0.03118,0.0312 0.04677,0.0468 0.01559,0.0156 0.03454,0.0284 0.04677,0.0468 0.01934,0.029 0.02212,0.0689 0.04677,0.0935 0.01103,0.011 0.03575,-0.011 0.04677,0 0.01103,0.011 -0.007,0.0328 0,0.0468 0.0099,0.0197 0.03691,0.0271 0.04677,0.0468 0.007,0.0139 -0.007,0.0328 0,0.0468 0.0099,0.0197 0.03691,0.0271 0.04677,0.0468 0.007,0.0139 -0.01103,0.0357 0,0.0468 0.01103,0.011 0.03575,-0.011 0.04677,0 0.03113,0.0311 -0.03113,0.0624 0,0.0935 0.01103,0.011 0.03575,-0.011 0.04677,0 0.01103,0.011 -0.007,0.0328 0,0.0468 0.0099,0.0197 0.03691,0.0271 0.04677,0.0468 0.01395,0.0279 -0.02205,0.0715 0,0.0935 0.01103,0.011 0.03575,-0.011 0.04677,0 0.01103,0.011 0,0.0312 0,0.0468 0,0.0156 -0.01103,0.0357 0,0.0468 0.01103,0.011 0.03575,-0.011 0.04677,0 0.02205,0.0221 -0.01395,0.0657 0,0.0935 0.0099,0.0197 0.03691,0.0271 0.04677,0.0468 0.007,0.0139 -0.0049,0.032 0,0.0468 0.02205,0.0661 0.07663,0.11944 0.09354,0.18709 0.0076,0.0303 -0.01395,0.0657 0,0.0935 0.007,0.0139 0.03812,-0.013 0.04677,0 0.142612,0.0331 0.01802,0.12959 0.04677,0.18709 0.0099,0.0197 0.0398,0.0259 0.04677,0.0468 0.0099,0.0296 -0.0076,0.0633 0,0.0935 0.05647,0.22586 0.02223,-0.002 0.09354,0.14031 0.007,0.014 -0.0049,0.032 0,0.0468 0.11293,0.33879 -0.01348,-0.0737 0.09354,0.14032 0.007,0.0139 -0.007,0.0328 0,0.0468 0.09733,0.19466 -0.0032,-0.05 0.09354,0.0468 0.01103,0.011 0,0.0312 0,0.0468 0,0.0156 0,0.0312 0,0.0468"
       id="path870"
       inkscape:connector-curvature="0" />
  </g>
</svg>
