<?xml version="1.0" encoding="UTF-8" standalone="no"?>
<!-- Created with Inkscape (http://www.inkscape.org/) -->

<svg
   xmlns:dc="http://purl.org/dc/elements/1.1/"
   xmlns:cc="http://creativecommons.org/ns#"
   xmlns:rdf="http://www.w3.org/1999/02/22-rdf-syntax-ns#"
   xmlns:svg="http://www.w3.org/2000/svg"
   xmlns="http://www.w3.org/2000/svg"
   xmlns:sodipodi="http://sodipodi.sourceforge.net/DTD/sodipodi-0.dtd"
   xmlns:inkscape="http://www.inkscape.org/namespaces/inkscape"
   width="64"
   height="64"
   viewBox="0 0 16.933333 16.933333"
   version="1.1"
   id="svg3719"
   inkscape:version="0.92.5 (2060ec1f9f, 2020-04-08)"
   sodipodi:docname="tank.svg">
  <defs
     id="defs3713" />
  <sodipodi:namedview
     id="base"
     pagecolor="#ffffff"
     bordercolor="#666666"
     borderopacity="1.0"
     inkscape:pageopacity="0.0"
     inkscape:pageshadow="2"
     inkscape:zoom="5.6568542"
     inkscape:cx="52.771098"
     inkscape:cy="24.911237"
     inkscape:document-units="mm"
     inkscape:current-layer="layer1"
     showgrid="false"
     units="px"
     inkscape:window-width="1061"
     inkscape:window-height="812"
     inkscape:window-x="232"
     inkscape:window-y="386"
     inkscape:window-maximized="0" />
  <metadata
     id="metadata3716">
    <rdf:RDF>
      <cc:Work
         rdf:about="">
        <dc:format>image/svg+xml</dc:format>
        <dc:type
           rdf:resource="http://purl.org/dc/dcmitype/StillImage" />
        <dc:title></dc:title>
      </cc:Work>
    </rdf:RDF>
  </metadata>
  <g
     inkscape:label="Layer 1"
     inkscape:groupmode="layer"
     id="layer1"
     transform="translate(0,-280.06667)">
    <path
       style="fill:none;stroke:#000000;stroke-width:0.26458332px;stroke-linecap:butt;stroke-linejoin:miter;stroke-opacity:1"
       d="m 8.1264881,286.93639 c -0.062996,-0.0158 -0.1253144,-0.0345 -0.1889882,-0.0473 -0.052529,-0.0105 -0.1337704,0 -0.1889882,0 -0.1102428,0 -0.220486,0 -0.3307291,0 -0.017351,0 -0.1870866,-0.002 -0.1889879,0 -0.011136,0.0111 0.011136,0.0361 0,0.0473 -0.023625,0.0236 -0.1181177,-0.0236 -0.1417413,0 -0.011136,0.0111 0.011136,0.0361 0,0.0472 -0.023625,0.0236 -0.1181174,-0.0236 -0.141741,0 -0.011136,0.0111 0.011136,0.0361 0,0.0473 -0.1259919,0 0.015748,-0.0158 -0.047247,0.0472 -0.022273,0.0223 -0.072222,-0.0223 -0.094494,0 -0.011136,0.0111 0.011136,0.0361 0,0.0473 -0.011136,0.0111 -0.036111,-0.0111 -0.047247,0 -0.011136,0.0111 0,0.0315 0,0.0472 -0.015748,0 -0.036111,-0.0111 -0.047247,0 -0.011136,0.0111 0.011136,0.0361 0,0.0473 -0.011136,0.0111 -0.033161,-0.007 -0.047247,0 -0.01992,0.01 -0.027326,0.0373 -0.047247,0.0472 -0.014086,0.007 -0.036111,-0.0111 -0.047247,0 -0.011136,0.0111 0.00704,0.0332 0,0.0472 -0.00996,0.0199 -0.037287,0.0273 -0.047247,0.0472 -0.00704,0.0141 0.011136,0.0361 0,0.0473 -0.011136,0.0111 -0.036111,-0.0111 -0.047247,0 -0.011136,0.0111 0.011136,0.0361 0,0.0472 -0.097756,0.0978 0.00382,-0.14938 -0.094494,0.0473 -0.00704,0.0141 0.011136,0.0361 0,0.0472 -0.011136,0.0111 -0.036111,-0.0111 -0.047247,0 -0.022273,0.0223 0.022273,0.0722 0,0.0945 -0.011136,0.0111 -0.036111,-0.0111 -0.047247,0 -0.011136,0.0111 0.00704,0.0332 0,0.0473 -0.00996,0.0199 -0.037286,0.0273 -0.047247,0.0473 -0.00704,0.0141 0.011136,0.0361 0,0.0472 -0.011136,0.0111 -0.036111,-0.0111 -0.047247,0 -0.023625,0.0236 0.023625,0.11812 0,0.14174 -0.011136,0.0111 -0.036111,-0.0111 -0.047247,0 -0.011136,0.0111 0,0.0315 0,0.0473 0,0.0158 0,0.0315 0,0.0473 0,0.12599 0,0.25198 0,0.37797 0,0.0787 0,0.15749 0,0.23624 0,0.0158 0,0.0315 0,0.0473 0,0.0158 -0.00704,0.0332 0,0.0472 0.00996,0.0199 0.037286,0.0273 0.047247,0.0473 0.00704,0.0141 -0.00704,0.0332 0,0.0473 0.00996,0.0199 0.037286,0.0273 0.047247,0.0472 0.00937,0.0187 -0.00966,0.13208 0,0.14174 0.011136,0.0111 0.036111,-0.0111 0.047247,0 0.016584,0.0166 -0.016317,0.2036 0,0.23623 0.00996,0.0199 0.037286,0.0273 0.047247,0.0473 0.00937,0.0187 -0.00966,0.13208 0,0.14174 0.011136,0.0111 0.036111,-0.0111 0.047247,0 0.011136,0.0111 -0.011136,0.0361 0,0.0473 0.011136,0.0111 0.036111,-0.0111 0.047247,0 0.030825,0.0308 -0.030825,0.0637 0,0.0945 0.011136,0.0111 0.036111,-0.0111 0.047247,0 0.022273,0.0223 -0.022273,0.0722 0,0.0945 0.011136,0.0111 0.036111,-0.0111 0.047247,0 0.022273,0.0223 -0.022273,0.0722 0,0.0945 0.022273,0.0223 0.072222,-0.0223 0.094494,0 0.022273,0.0223 -0.022273,0.0722 0,0.0945 0.011136,0.0111 0.036111,-0.0111 0.047247,0 0.011136,0.0111 -0.011136,0.0361 0,0.0473 0.022273,0.0223 0.072222,-0.0223 0.094494,0 0.011136,0.0111 -0.011136,0.0361 0,0.0472 0.022273,0.0223 0.072222,-0.0223 0.094494,0 0.011136,0.0111 -0.011136,0.0361 0,0.0472 0.011136,0.0111 0.033161,-0.007 0.047247,0 0.01992,0.01 0.027326,0.0373 0.047247,0.0473 0.014086,0.007 0.033161,-0.007 0.047247,0 0.019921,0.01 0.027326,0.0373 0.047247,0.0473 0.050297,0.0251 0.044197,-0.0251 0.094494,0 0.1566987,0.1567 -0.044545,-0.0223 0.094494,0.0472 0.01992,0.01 0.026117,0.0402 0.047247,0.0473 0.3133973,0 -0.066817,-0.0223 0.141741,0.0472 0.046967,0.0156 0.1960888,-0.0201 0.236235,0 0.014086,0.007 -0.011136,0.0361 0,0.0473 0.011136,0.0111 0.031498,0 0.047247,0 0.094494,0 0.1889882,0 0.283482,0 0.1417413,0 0.2834823,0 0.4252233,0 0.024707,0 0.1765649,0.006 0.1889881,0 0.01992,-0.01 0.027326,-0.0373 0.047247,-0.0473 0.028173,-0.0141 0.066322,0.0141 0.094494,0 0.01992,-0.01 0.031498,-0.0315 0.047247,-0.0472 0.015748,-0.0158 0.027326,-0.0373 0.047247,-0.0473 0.018733,-0.009 0.1320821,0.01 0.1417413,0 0.011136,-0.0111 -0.011136,-0.0361 0,-0.0472 0.00966,-0.01 0.1230079,0.009 0.141741,0 0.01992,-0.01 0.027326,-0.0373 0.047247,-0.0473 0.028173,-0.0141 0.072222,0.0223 0.094494,0 0.011136,-0.0111 -0.011136,-0.0361 0,-0.0473 0.022273,-0.0223 0.072222,0.0223 0.094494,0 0.011136,-0.0111 -0.00704,-0.0332 0,-0.0472 0.098315,-0.19663 -0.00326,0.0505 0.094494,-0.0472 0.011136,-0.0111 -0.011136,-0.0361 0,-0.0473 0.011136,-0.0111 0.036111,0.0111 0.047247,0 0.011136,-0.0111 -0.011136,-0.0361 0,-0.0472 0.011136,-0.0111 0.031498,0 0.047247,0 0,-0.0158 -0.00704,-0.0332 0,-0.0473 0.098315,-0.19663 -0.00326,0.0505 0.094494,-0.0473 0,-0.12599 -0.015748,0.0158 0.047247,-0.0472 0.011136,-0.0111 -0.011136,-0.0361 0,-0.0472 0.011136,-0.0111 0.036111,0.0111 0.047247,0 0.011136,-0.0111 0,-0.0315 0,-0.0473 0,-0.0158 0,-0.0315 0,-0.0473 0,-0.12599 -0.015748,0.0158 0.047247,-0.0472 0.023625,-0.0236 -0.023625,-0.11812 0,-0.14174 0.011136,-0.0111 0.036111,0.0111 0.047247,0 0.011136,-0.0111 0,-0.0315 0,-0.0472 0,-0.0945 0,-0.18899 0,-0.28348 0,-0.0945 0,-0.18899 0,-0.28349 0,-0.0157 0.011136,-0.0361 0,-0.0472 -0.011136,-0.0111 -0.036111,0.0111 -0.047247,0 -0.011369,-0.0114 0.011369,-0.17762 0,-0.18899 -0.011136,-0.0111 -0.036111,0.0111 -0.047247,0 -0.023622,-0.0236 0.023625,-0.11812 0,-0.14174 -0.011136,-0.0111 -0.036111,0.0111 -0.047247,0 -0.022273,-0.0223 0.014086,-0.0663 0,-0.0945 -0.00996,-0.0199 -0.037286,-0.0273 -0.047247,-0.0472 -0.00704,-0.0141 0.011136,-0.0361 0,-0.0473 -0.011136,-0.0111 -0.036111,0.0111 -0.047247,0 -0.022273,-0.0223 0.022273,-0.0722 0,-0.0945 -0.011136,-0.0111 -0.036111,0.0111 -0.047247,0 -0.022273,-0.0223 0.014086,-0.0663 0,-0.0945 -0.00996,-0.0199 -0.037287,-0.0273 -0.047247,-0.0473 -0.00704,-0.0141 0.011136,-0.0361 0,-0.0472 -0.011136,-0.0111 -0.036111,0.0111 -0.047247,0 -0.022273,-0.0223 0.022273,-0.0722 0,-0.0945 -0.011136,-0.0111 -0.036111,0.0111 -0.047247,0 -0.011136,-0.0111 0.011136,-0.0361 0,-0.0472 -0.011136,-0.0111 -0.036111,0.0111 -0.047247,0 -0.022273,-0.0223 0.022273,-0.0722 0,-0.0945 -0.011136,-0.0111 -0.036111,0.0111 -0.047247,0 -0.022273,-0.0223 0.022273,-0.0722 0,-0.0945 -0.022273,-0.0223 -0.072222,0.0223 -0.094494,0 -0.011136,-0.0111 0.011136,-0.0361 0,-0.0472 -0.011136,-0.0111 -0.036111,0.0111 -0.047247,0 -0.022273,-0.0223 0.022273,-0.0722 0,-0.0945 -0.011136,-0.0111 -0.036111,0.0111 -0.047247,0 -0.022273,-0.0223 0.022273,-0.0722 0,-0.0945 -0.011136,-0.0111 -0.036111,0.0111 -0.047247,0 -0.011136,-0.0111 0.011136,-0.0361 0,-0.0472 -0.011136,-0.0111 -0.036111,0.0111 -0.047247,0 -0.011136,-0.0111 0.00704,-0.0332 0,-0.0472 -0.00996,-0.0199 -0.037286,-0.0273 -0.047247,-0.0473 -0.00704,-0.0141 0.011136,-0.0361 0,-0.0472 -0.011136,-0.0111 -0.036111,0.0111 -0.047247,0 -0.011136,-0.0111 0.011136,-0.0361 0,-0.0473 -0.022273,-0.0223 -0.072222,0.0223 -0.094494,0 -0.011136,-0.0111 0.011136,-0.0361 0,-0.0472 -0.011136,-0.0111 -0.036111,0.0111 -0.047247,0 -0.011136,-0.0111 0.011136,-0.0361 0,-0.0473 -0.011136,-0.0111 -0.036111,0.0111 -0.047247,0 -0.011136,-0.0111 0.011136,-0.0361 0,-0.0472 -0.023622,-0.0236 -0.1181174,0.0236 -0.141741,0 -0.011136,-0.0111 0.011136,-0.0361 0,-0.0473 -0.022273,-0.0223 -0.072221,0.0223 -0.094494,0 -0.011136,-0.0111 0,-0.0315 0,-0.0473 -0.015748,0 -0.036111,0.0111 -0.047247,0 -0.011136,-0.0111 0.011136,-0.0361 0,-0.0472 -0.023625,-0.0236 -0.1181176,0.0236 -0.1417412,0 -0.011136,-0.0111 0.011136,-0.0361 0,-0.0472 -0.00151,-0.002 -0.1302822,0 -0.141741,0 -0.015748,0 -0.062996,0 -0.047247,0 0.031498,0 0.062996,0 0.094494,0"
       id="path3727"
       inkscape:connector-curvature="0" />
    <path
       style="fill:none;stroke:#000000;stroke-width:0.26458332px;stroke-linecap:butt;stroke-linejoin:miter;stroke-opacity:1"
       d="m 9.2131696,287.64509 c 0.1102429,0 0.2204861,0 0.3307292,0 0.015748,0 0.033161,-0.007 0.047247,0 0.01992,0.01 0.027326,0.0373 0.047247,0.0473 0.014086,0.007 0.031498,0 0.047247,0 0.015748,0 0.031498,0 0.047247,0 0.062996,0 0.1259922,0 0.1889882,0 0.220486,0 0.440972,0 0.661458,0 0.03349,0 0.271267,-0.006 0.283482,0 0.01992,0.01 0.02733,0.0373 0.04725,0.0473 0.01709,0.009 0.203373,0 0.236235,0 0.15749,0 0.314981,0 0.472471,0 0.110802,0 -0.02227,-0.0111 0.09449,0.0472 0.01438,0.007 0.120463,0 0.141741,0 0.03286,0 0.219149,-0.009 0.236235,0 0.01992,0.01 0.02733,0.0373 0.04725,0.0472 0.01506,0.008 0.194009,0 0.236235,0 0.188988,0 0.377976,0 0.566965,0 0.661458,0 1.322916,0 1.984374,0 0.01575,0 0.0315,0 0.04725,0 0.01575,0 0.03611,0.0111 0.04725,0 0.01114,-0.0111 -0.01114,-0.0361 0,-0.0472 0.0021,-0.002 0.213959,0 0.236236,0 0.01575,0 0.0315,0 0.04725,0 0.01575,0 0.03611,-0.0111 0.04725,0 0.0015,0.002 0,0.13029 0,0.14174 0,0.20474 0,0.40948 0,0.61422 0,0.0945 0,0.18898 0,0.28348 0,0.0157 0,0.0315 0,0.0472 0,0.0157 0.007,0.0332 0,0.0472 -0.01,0.0199 -0.03729,0.0273 -0.04725,0.0473 -0.0061,0.0122 0,0.24999 0,0.28348 0,0.0158 0.01114,0.0361 0,0.0473 -0.01114,0.0111 -0.03611,-0.0111 -0.04725,0 -0.01114,0.0111 0,0.0315 0,0.0472 0,0.11024 0,0.22048 0,0.33072 0,0.0223 0.0021,0.2341 0,0.23624 -0.01114,0.0111 -0.03611,-0.0111 -0.04725,0 -0.01114,0.0111 0.01114,0.0361 0,0.0472 -0.0015,0.002 -0.130282,0 -0.141741,0 -0.15749,0 -0.31498,0 -0.47247,0 -0.04259,0 -0.206498,0.01 -0.236235,0 -0.03341,-0.0111 -0.06109,-0.0361 -0.09449,-0.0472 -0.02666,-0.009 -0.110695,0 -0.141741,0 -0.110243,0 -0.220486,0 -0.330729,0 -0.01575,0 -0.0315,0 -0.04725,0 -0.01575,0 -0.03611,0.0111 -0.04725,0 -0.01114,-0.0111 0.01114,-0.0361 0,-0.0473 -0.0021,-0.002 -0.213959,0 -0.236235,0 -0.01575,0 -0.03611,0.0111 -0.04725,0 -0.01114,-0.0111 0.01114,-0.0361 0,-0.0472 -0.02227,-0.0223 -0.07222,0.0223 -0.09449,0 -0.01114,-0.0111 0.01114,-0.0361 0,-0.0473 -0.02227,-0.0223 -0.07222,0.0223 -0.0945,0 -0.01114,-0.0111 0.01114,-0.0361 0,-0.0473 -0.0097,-0.01 -0.123007,0.009 -0.14174,0 -0.01992,-0.01 -0.02733,-0.0373 -0.04725,-0.0472 -0.05005,-0.025 -0.04444,0.025 -0.09449,0 -0.01992,-0.01 -0.02733,-0.0373 -0.04725,-0.0472 -0.02817,-0.0141 -0.06632,0.0141 -0.09449,0 -0.03984,-0.0199 -0.05465,-0.0746 -0.09449,-0.0945 -0.02817,-0.0141 -0.06632,0.0141 -0.09449,0 -0.01992,-0.01 -0.02733,-0.0373 -0.04725,-0.0472 -0.01873,-0.009 -0.132082,0.01 -0.141741,0 -0.01114,-0.0111 0.01114,-0.0361 0,-0.0473 -0.02227,-0.0223 -0.06632,0.0141 -0.09449,0 -0.01992,-0.01 -0.02733,-0.0373 -0.04725,-0.0472 -0.02817,-0.0141 -0.07222,0.0223 -0.09449,0 -0.01114,-0.0111 0.01114,-0.0361 0,-0.0472 -0.01114,-0.0111 -0.0315,0 -0.04725,0 -0.09449,0 -0.188988,0 -0.283482,0 -0.01575,0 -0.03611,0.0111 -0.04725,0 -0.01114,-0.0111 0.01114,-0.0361 0,-0.0472 -0.0019,-0.002 -0.171638,0 -0.188988,0 -0.314981,0 -0.629961,0 -0.944941,0 -0.220486,0 -0.440972,0 -0.661458,0 -0.01575,0 -0.031498,0 -0.047247,0 -0.015748,0 -0.036111,-0.0111 -0.047247,0 -0.011136,0.0111 0.011136,0.0361 0,0.0472 -0.011136,0.0111 -0.033161,-0.007 -0.047247,0 -0.01992,0.01 -0.027326,0.0373 -0.047247,0.0472 -0.028173,0.0141 -0.082092,-0.029 -0.094494,0 -0.045167,0.10545 -0.062997,0.22061 -0.094495,0.33092"
       id="path3729"
       inkscape:connector-curvature="0" />
    <path
       style="fill:none;stroke:#000000;stroke-width:0.26458332px;stroke-linecap:butt;stroke-linejoin:miter;stroke-opacity:1"
       d="m 12.581713,287.69234 c -0.05055,-0.20221 -0.04677,-0.1228 -0.04677,-0.23386 0,-0.0156 0.007,-0.0328 0,-0.0468 -0.0099,-0.0197 -0.03691,-0.0271 -0.04677,-0.0468 -0.007,-0.0139 0,-0.0312 0,-0.0468 0,-0.0312 0.0099,-0.064 0,-0.0935 -0.007,-0.0209 -0.03454,-0.0284 -0.04677,-0.0468 -0.103046,-0.0236 -0.02472,-0.0962 -0.04677,-0.14032 -0.0099,-0.0197 -0.03691,-0.0271 -0.04677,-0.0468 -0.01871,-0.0374 0.01871,-0.1029 0,-0.14032 -0.107029,-0.21405 0.01939,0.19848 -0.09354,-0.14031 -0.02339,-0.0702 0.04677,-0.0468 0,-0.14032 -0.007,-0.014 -0.03575,0.011 -0.04677,0 -0.0128,-0.0128 0.01269,-0.16172 0,-0.18709 -0.01972,-0.0394 -0.0796,-0.0517 -0.09354,-0.0935 0,-0.21292 0.02205,-0.003 -0.04677,-0.14032 -0.01871,-0.0374 0.01871,-0.1029 0,-0.14032 -0.107029,-0.21405 0.01939,0.19848 -0.09354,-0.14031 -0.01096,-0.0329 0.01282,-0.22104 0,-0.23386 -0.06236,-0.0624 -0.04677,0.0779 -0.04677,-0.0468 0,-0.0245 0.0061,-0.17479 0,-0.18708 -0.0099,-0.0197 -0.03691,-0.0271 -0.04677,-0.0468 -0.01871,-0.0374 0.01871,-0.1029 0,-0.14031 -0.0099,-0.0197 -0.03691,-0.027 -0.04677,-0.0468 -0.007,-0.0139 0.01103,-0.0357 0,-0.0468 -0.01103,-0.011 -0.03575,0.011 -0.04677,0 -0.0021,-0.002 0,-0.21181 0,-0.23386 0,-0.0156 0.01103,-0.0358 0,-0.0468 -0.01103,-0.011 -0.03575,0.011 -0.04677,0 -0.01103,-0.011 0,-0.0312 0,-0.0468 0,-0.10914 0,-0.21827 0,-0.32741 0,-0.12472 -0.01559,0.0156 0.04677,-0.0468 0.01103,-0.011 -0.01103,-0.0358 0,-0.0468 0.01103,-0.011 0.03575,0.011 0.04677,0 0.02205,-0.022 -0.02205,-0.0715 0,-0.0935 0.01103,-0.011 0.03575,0.011 0.04677,0 0.01126,-0.0112 -0.01126,-0.17583 0,-0.18708 0.01103,-0.011 0.03575,0.011 0.04677,0 0.0021,-0.002 0,-0.21181 0,-0.23387 0,-0.0156 0.01103,-0.0357 0,-0.0468 -0.01103,-0.011 -0.03118,0 -0.04677,0 -0.01559,0 -0.03118,0 -0.04677,0 -0.155907,0 -0.311814,0 -0.467721,0 -0.873081,0 -1.7461613,0 -2.6192418,0 -0.2650424,0 -0.5300845,0 -0.7951269,0 -0.011343,0 -0.1388123,-0.002 -0.1403165,0 -0.011025,0.011 0.011025,0.0358 0,0.0468 -0.011025,0.011 -0.031181,0 -0.046772,0 -0.077953,0 -0.1559071,0 -0.2338607,0 -0.5768568,0 -1.1537135,0 -1.7305703,0 -0.2026793,0 -0.4053586,0 -0.6080381,0 -0.021159,0 -0.2681682,-0.006 -0.280633,0 -0.019722,0.01 -0.025855,0.0398 -0.046772,0.0468 -0.026607,0.009 -0.189809,0 -0.2338608,0 -0.1870887,0 -0.3741774,0 -0.5612659,0 -0.2650423,0 -0.5300847,0 -0.7951268,0 -0.011343,0 -0.1388124,-0.002 -0.1403165,0 -0.011025,0.011 0.011025,0.0357 0,0.0468 -0.011025,0.011 -0.031182,0 -0.046772,0 -0.077954,0 -0.1559073,0 -0.2338609,0 -0.015592,0 -0.035748,-0.011 -0.046772,0 -0.011025,0.011 0.011025,0.0357 0,0.0468 -0.011025,0.011 -0.031181,0 -0.046772,0 -0.015592,0 -0.031181,0 -0.046772,0 -0.093544,0 -0.1870886,0 -0.2806329,0 -0.015591,0 -0.031182,0 -0.046772,0 -0.015591,0 -0.032827,-0.007 -0.046772,0 -0.019721,0.01 -0.027051,0.0369 -0.046772,0.0468 -0.02789,0.014 -0.071496,-0.022 -0.093544,0 -0.022048,0.0221 0.022049,0.0715 0,0.0935 -0.011024,0.011 -0.035748,-0.011 -0.046772,0 -0.011024,0.011 0,0.0312 0,0.0468 0,0.0325 0.00846,0.21695 0,0.23386 -0.00986,0.0197 -0.036912,0.027 -0.046772,0.0468 -0.014944,0.0299 0.012549,0.14944 0,0.18709 -0.011024,0.0331 -0.035748,0.0605 -0.046772,0.0935 -0.016177,0.0485 0.017521,0.24559 0,0.28063 -0.00697,0.0139 -0.035748,-0.011 -0.046772,0 -0.012552,0.0126 0.01098,0.15415 0,0.18709 -0.011024,0.0331 -0.035748,0.0605 -0.046772,0.0935 -0.00493,0.0148 0.00493,0.032 0,0.0468 -0.011024,0.0331 -0.035748,0.0605 -0.046772,0.0935 -0.016567,0.0497 0.016567,0.13739 0,0.18709 -0.011024,0.0331 -0.035748,0.0605 -0.046772,0.0935 -0.00986,0.0296 0.013945,0.0657 0,0.0935 -0.00986,0.0197 -0.036912,0.027 -0.046772,0.0468 -0.015162,0.0303 0.014688,0.23657 0,0.28063 -0.011024,0.0331 -0.035748,0.0605 -0.046772,0.0935 -0.00979,0.0294 0,0.14944 0,0.18709 0,0.12473 0,0.24946 0,0.37418 0,0.29622 0,0.59245 0,0.88867 0,0.31182 0,0.62363 0,0.93545 0,0.14031 0,0.28063 0,0.42094 0,0.0156 0,0.0312 0,0.0468 0,0.0156 -0.011024,0.0357 0,0.0468 0.011024,0.011 0.035748,-0.011 0.046772,0 0.011024,0.011 0,0.0312 0,0.0468 0,0.0156 0,0.0312 0,0.0468 0,0.0332 -0.00605,0.26854 0,0.28064 0.00986,0.0197 0.036912,0.0271 0.046772,0.0468 0.00846,0.0169 0,0.20133 0,0.23386 0,0.20268 0,0.40536 0,0.60804 0,0.10913 0,0.21827 0,0.3274 0,0.0462 -0.010164,0.14644 0,0.18709 0.011958,0.0478 0.034815,0.0925 0.046772,0.14032 0.010569,0.0423 0,0.22566 0,0.28063 0,0.18709 0,0.37418 0,0.56127 0,0.1559 0,0.31181 0,0.46772 0,0.0156 0,0.0312 0,0.0468 0,0.0156 -0.011024,0.0358 0,0.0468 0.011024,0.011 0.035748,-0.011 0.046772,0 0.022048,0.022 -0.022049,0.0715 0,0.0935 0.1247258,0 -0.015591,-0.0156 0.046772,0.0468 0.011024,0.011 0.035748,-0.011 0.046772,0 0.022049,0.022 -0.022048,0.0715 0,0.0935 0.011024,0.011 0.035748,-0.011 0.046772,0 0.022048,0.0221 -0.022049,0.0715 0,0.0935 0.011024,0.011 0.035748,-0.011 0.046772,0 0.011024,0.011 -0.011024,0.0358 0,0.0468 0.022048,0.022 0.065655,-0.014 0.093544,0 0.019721,0.01 0.027051,0.0369 0.046772,0.0468 0.013945,0.007 0.035748,-0.011 0.046772,0 0.011024,0.011 -0.011024,0.0358 0,0.0468 0.011024,0.011 0.032827,-0.007 0.046772,0 0.019721,0.01 0.027051,0.0369 0.046772,0.0468 0.041834,0.0209 0.098482,-0.0209 0.1403165,0 0.013945,0.007 -0.011024,0.0357 0,0.0468 0.022048,0.0221 0.065655,-0.0139 0.093544,0 0.039442,0.0197 0.05171,0.0796 0.093544,0.0935 0.1111491,0.0371 0.084949,-0.0554 0.1870888,0.0468 0.011025,0.011 -0.011025,0.0357 0,0.0468 4.47e-5,4e-5 0.1401045,-7e-5 0.1403164,0 0.020918,0.007 0.025855,0.0398 0.046772,0.0468 0.029581,0.01 0.063294,-0.008 0.093544,0 0.033821,0.008 0.060471,0.0357 0.093544,0.0468 0.01479,0.005 0.035748,-0.011 0.046772,0 0.011025,0.011 -0.013944,0.0398 0,0.0468 0.055779,0.0279 0.1265878,-0.0151 0.1870887,0 0.033821,0.008 0.059723,0.0383 0.093544,0.0468 0.1604272,0.0401 0.041348,-0.0481 0.233861,0 0.021392,0.005 0.027051,0.0369 0.046772,0.0468 0.017672,0.009 0.2219211,0 0.2806332,0 0.2650421,0 0.5300845,0 0.7951266,0 0.5924476,0 1.1848949,0 1.7773425,0 0.1714979,0 0.3429958,0 0.5144939,0 0.046772,0 0.093544,0 0.1403165,0 0.031181,0 0.063294,-0.008 0.093544,0 0.04783,0.012 0.092486,0.0348 0.1403164,0.0468 0.058501,0.0146 0.1298255,-0.0191 0.1870888,0 0.020918,0.007 0.027051,0.0369 0.046772,0.0468 0.013943,0.007 0.031181,0 0.046772,0 0.00687,0 0.1960168,-0.009 0.233861,0 0.04783,0.012 0.096219,0.0247 0.1403164,0.0468 0.019722,0.01 0.025381,0.0414 0.046772,0.0468 0.045376,0.0113 0.093545,0 0.1403168,0 0.015592,0 0.031982,-0.005 0.046772,0 0.033073,0.011 0.059723,0.0383 0.093545,0.0468 0.03025,0.008 0.063963,-0.01 0.093544,0 0.020918,0.007 0.025855,0.0398 0.046772,0.0468 0.049701,0.0166 0.1373881,-0.0166 0.1870887,0 0.033073,0.011 0.060471,0.0358 0.093544,0.0468 0.01479,0.005 0.032827,-0.007 0.046772,0 0.019719,0.01 0.025855,0.0398 0.046772,0.0468 0.049701,0.0166 0.1373881,-0.0166 0.1870887,0 0.033073,0.011 0.060471,0.0357 0.093544,0.0468 0.01479,0.005 0.035748,-0.011 0.046772,0 0.011025,0.011 -0.013943,0.0398 0,0.0468 0.036896,0.0418 0.098482,-0.0209 0.1403165,0 0.019722,0.01 0.025855,0.0398 0.046772,0.0468 0.049701,0.0166 0.1373881,-0.0166 0.1870888,0 0.033073,0.011 0.064537,0.0274 0.093544,0.0468 0.018346,0.0122 0.025855,0.0398 0.046773,0.0468 0.0497,0.0166 0.137388,-0.0166 0.187088,0 0.06615,0.022 0.120943,0.0715 0.187089,0.0935 0.04151,0.0138 0.203234,-0.0153 0.233861,0 0.01972,0.01 0.02705,0.0369 0.04677,0.0468 0.02789,0.014 0.06565,-0.0139 0.09354,0 0.01972,0.01 0.02585,0.0398 0.04677,0.0468 0.03657,0.0122 0.254894,-0.0129 0.280633,0 0.01972,0.01 0.02705,0.0369 0.04677,0.0468 0.01394,0.007 0.03118,0 0.04677,0 0.01559,0 0.03118,0 0.04677,0 0.09354,0 0.187089,0 0.280633,0 0.202679,0 0.405359,0 0.608038,0 0.202679,0 0.405359,0 0.608038,0 0.03253,0 0.216947,0.008 0.233861,0 0.01972,-0.01 0.02705,-0.0369 0.04677,-0.0468 0.01395,-0.007 0.03575,0.011 0.04677,0 0.01103,-0.011 -0.01103,-0.0358 0,-0.0468 0.01103,-0.011 0.03575,0.011 0.04677,0 0.01103,-0.011 -0.01103,-0.0357 0,-0.0468 0.01103,-0.011 0.03575,0.011 0.04677,0 0.01103,-0.011 -0.01103,-0.0358 0,-0.0468 0.02205,-0.022 0.0715,0.0221 0.09354,0 0.02205,-0.022 -0.02205,-0.0715 0,-0.0935 0.01103,-0.011 0.03575,0.011 0.04677,0 0.02205,-0.022 -0.02205,-0.0715 0,-0.0935 0.01103,-0.011 0.03575,0.011 0.04677,0 0.02205,-0.0221 -0.01394,-0.0657 0,-0.0935 0.0099,-0.0197 0.03691,-0.0271 0.04677,-0.0468 0.007,-0.0139 -0.01103,-0.0357 0,-0.0468 0.01103,-0.011 0.03575,0.011 0.04677,0 0.0019,-0.002 0,-0.16991 0,-0.18709 0,-0.1559 0,-0.31181 0,-0.46772 0,-0.0156 0,-0.0312 0,-0.0468 0,-0.0156 0.01103,-0.0357 0,-0.0468 -0.01103,-0.011 -0.03575,0.011 -0.04677,0 -0.02339,-0.0234 0.02339,-0.11693 0,-0.14032 -0.01103,-0.011 -0.03575,0.011 -0.04677,0 -0.0015,-0.002 0,-0.12897 0,-0.14032 0,-0.10969 0.01103,0.0221 -0.04677,-0.0935 -0.0147,-0.0294 0.0147,-0.15769 0,-0.18709 -0.0099,-0.0197 -0.03691,-0.0271 -0.04677,-0.0468 -0.007,-0.0139 0.007,-0.0328 0,-0.0468 -0.0099,-0.0197 -0.03691,-0.027 -0.04677,-0.0468 -0.01394,-0.0279 0.02205,-0.0715 0,-0.0935 -0.01103,-0.011 -0.03575,0.011 -0.04677,0 -0.02205,-0.0221 0.01395,-0.0657 0,-0.0935 -0.0099,-0.0197 -0.03691,-0.0271 -0.04677,-0.0468 -0.01395,-0.0279 0.01394,-0.0657 0,-0.0935 -0.0099,-0.0197 -0.03691,-0.027 -0.04677,-0.0468 -0.007,-0.0139 0.01103,-0.0358 0,-0.0468 -0.01103,-0.011 -0.03575,0.011 -0.04677,0 -0.01126,-0.0112 0.01126,-0.17583 0,-0.18708 -0.01103,-0.011 -0.03575,0.011 -0.04677,0 -0.01126,-0.0113 0.01126,-0.17584 0,-0.18709 -0.01103,-0.011 -0.03575,0.011 -0.04677,0 -0.02339,-0.0234 0.02339,-0.11693 0,-0.14032 -0.01103,-0.011 -0.0398,0.0139 -0.04677,0 -0.01394,-0.0279 0,-0.0624 0,-0.0935 0,-0.0156 0.01103,-0.0358 0,-0.0468 -0.01103,-0.011 -0.03575,0.011 -0.04677,0 -0.01103,-0.011 0,-0.0312 0,-0.0468 0,-0.0779 0,-0.15591 0,-0.23386 0,-0.20268 0,-0.40536 0,-0.60804 0,-0.0325 -0.0085,-0.21694 0,-0.23386 0.0099,-0.0197 0.03691,-0.027 0.04677,-0.0468 0.0071,-0.0142 0,-0.11925 0,-0.14032 0,-0.1559 0,-0.31181 0,-0.46772"
       id="path3735"
       inkscape:connector-curvature="0" />
  </g>
</svg>
